<svg width="64" height="64" viewBox="0 0 64 64" xmlns="http://www.w3.org/2000/svg">
  <defs>
    <linearGradient id="gemGradient" x1="0%" y1="0%" x2="100%" y2="100%">
      <stop offset="0%" style="stop-color:#60a5fa;stop-opacity:1" />
      <stop offset="50%" style="stop-color:#3b82f6;stop-opacity:1" />
      <stop offset="100%" style="stop-color:#1d4ed8;stop-opacity:1" />
    </linearGradient>
    <linearGradient id="topFacet" x1="0%" y1="0%" x2="100%" y2="100%">
      <stop offset="0%" style="stop-color:#93c5fd;stop-opacity:1" />
      <stop offset="100%" style="stop-color:#60a5fa;stop-opacity:1" />
    </linearGradient>
    <linearGradient id="leftFacet" x1="0%" y1="0%" x2="100%" y2="100%">
      <stop offset="0%" style="stop-color:#3b82f6;stop-opacity:1" />
      <stop offset="100%" style="stop-color:#1e40af;stop-opacity:1" />
    </linearGradient>
    <linearGradient id="rightFacet" x1="0%" y1="0%" x2="100%" y2="100%">
      <stop offset="0%" style="stop-color:#2563eb;stop-opacity:1" />
      <stop offset="100%" style="stop-color:#1d4ed8;stop-opacity:1" />
    </linearGradient>
    <filter id="glow">
      <feGaussianBlur stdDeviation="2" result="coloredBlur"/>
      <feMerge> 
        <feMergeNode in="coloredBlur"/>
        <feMergeNode in="SourceGraphic"/>
      </feMerge>
    </filter>
  </defs>
  
  <!-- Gem Shadow -->
  <ellipse cx="32" cy="56" rx="18" ry="4" fill="#1e40af" opacity="0.2"/>
  
  <!-- Main Gem Body -->
  <polygon points="32,8 48,24 32,52 16,24" fill="url(#gemGradient)" stroke="#1e40af" stroke-width="1"/>
  
  <!-- Top Facet -->
  <polygon points="32,8 48,24 32,20 16,24" fill="url(#topFacet)" stroke="#60a5fa" stroke-width="0.5"/>
  
  <!-- Left Facet -->
  <polygon points="16,24 32,20 32,52" fill="url(#leftFacet)" stroke="#1e40af" stroke-width="0.5"/>
  
  <!-- Right Facet -->
  <polygon points="48,24 32,20 32,52" fill="url(#rightFacet)" stroke="#1d4ed8" stroke-width="0.5"/>
  
  <!-- Highlight -->
  <polygon points="28,12 36,12 32,20" fill="#ffffff" opacity="0.6"/>
  <polygon points="20,26 28,26 32,20" fill="#ffffff" opacity="0.3"/>
  
  <!-- Sparkles -->
  <circle cx="24" cy="16" r="1.5" fill="#ffffff" opacity="0.8" filter="url(#glow)"/>
  <circle cx="40" cy="18" r="1" fill="#ffffff" opacity="0.9" filter="url(#glow)"/>
  <circle cx="36" cy="32" r="1" fill="#ffffff" opacity="0.7" filter="url(#glow)"/>
  
  <!-- Chat Bubble Accent -->
  <circle cx="48" cy="12" r="6" fill="#3b82f6" stroke="#ffffff" stroke-width="1"/>
  <circle cx="46" cy="10" r="1" fill="#ffffff"/>
  <circle cx="48" cy="12" r="1" fill="#ffffff"/>
  <circle cx="50" cy="14" r="1" fill="#ffffff"/>
</svg>