<svg width="32" height="32" viewBox="0 0 32 32" fill="none" xmlns="http://www.w3.org/2000/svg">
  <defs>
    <linearGradient id="gemGradient" x1="0%" y1="0%" x2="100%" y2="100%">
      <stop offset="0%" style="stop-color:#dc2626;stop-opacity:1" />
      <stop offset="50%" style="stop-color:#ef4444;stop-opacity:1" />
      <stop offset="100%" style="stop-color:#f87171;stop-opacity:1" />
    </linearGradient>
  </defs>
  
  <!-- Gem shape -->
  <path d="M16 2L24 8L28 16L16 30L4 16L8 8L16 2Z" fill="url(#gemGradient)" stroke="#ffffff" stroke-width="1"/>
  
  <!-- Inner facets -->
  <path d="M16 2L20 6L16 12L12 6L16 2Z" fill="#ffffff" opacity="0.3"/>
  <path d="M8 8L12 6L16 12L4 16L8 8Z" fill="#ffffff" opacity="0.2"/>
  <path d="M24 8L28 16L16 12L20 6L24 8Z" fill="#ffffff" opacity="0.2"/>
  <path d="M16 12L4 16L16 30L28 16L16 12Z" fill="#ffffff" opacity="0.1"/>
  
  <!-- Highlight -->
  <ellipse cx="18" cy="8" rx="3" ry="2" fill="#ffffff" opacity="0.6"/>
</svg>